<?xml version="1.0" encoding="utf-8"?>
<svg xmlns="http://www.w3.org/2000/svg" style="display: none;">
  <symbol id="icon-info" viewBox="0 0 24 24" fill="none" stroke="currentColor" stroke-width="2"><circle cx="12" cy="12" r="10"/><path d="M12 16v-4M12 8h.01"/></symbol>
  <symbol id="icon-calendar" viewBox="0 0 24 24" fill="none" stroke="currentColor" stroke-width="2"><rect x="3" y="4" width="18" height="18" rx="2"/><line x1="16" y1="2" x2="16" y2="6"/><line x1="8" y1="2" x2="8" y2="6"/><line x1="3" y1="10" x2="21" y2="10"/></symbol>
  <symbol id="icon-star" viewBox="0 0 24 24" fill="currentColor"><path d="M12 2l3.09 6.26L22 9.27l-5 4.87 1.18 6.88L12 17.77l-6.18 3.25L7 14.14 2 9.27l6.91-1.01L12 2z"/></symbol>
  <symbol id="icon-external" viewBox="0 0 24 24" fill="none" stroke="currentColor" stroke-width="2"><line x1="7" y1="17" x2="17" y2="7"/><polyline points="7 7 17 7 17 17"/></symbol>
  <symbol id="icon-arrow-right" viewBox="0 0 24 24" fill="none" stroke="currentColor" stroke-width="2"><line x1="5" y1="12" x2="19" y2="12"/><polyline points="12 5 19 12 12 19"/></symbol>
  <symbol id="icon-bilibili" viewBox="0 0 24 24" fill="currentColor"><path d="M17.813 4.653h.854c1.51.054 2.769.578 3.773 1.574 1.004.995 1.524 2.249 1.56 3.76v7.36c-.036 1.51-.556 2.769-1.56 3.773s-2.262 1.524-3.773 1.56H5.333c-1.51-.036-2.769-.556-3.773-1.56S.036 18.858 0 17.347v-7.36c.036-1.511.556-2.765 1.56-3.76 1.004-.996 2.262-1.52 3.773-1.574h.774l-1.174-1.12a1.234 1.234 0 01-.373-.906c0-.356.124-.658.373-.907l.027-.027c.267-.249.573-.373.92-.373.347 0 .653.124.92.373L9.653 4.44c.071.071.134.142.187.213h4.267a.836.836 0 01.16-.213l2.853-2.747c.267-.249.573-.373.92-.373.347 0 .662.151.929.4.267.249.391.551.391.907 0 .355-.124.657-.373.906zM5.333 7.24c-.746.018-1.373.276-1.88.773-.506.498-.769 1.13-.786 1.894v7.52c.017.764.28 1.395.786 1.893.507.498 1.134.756 1.88.773h13.334c.746-.017 1.373-.275 1.88-.773.506-.498.769-1.129.786-1.893v-7.52c-.017-.765-.28-1.396-.786-1.894-.507-.497-1.134-.755-1.88-.773zM8 11.107c.373 0 .684.124.933.373.25.249.383.569.4.96v1.173c-.017.391-.15.711-.4.96-.249.25-.56.374-.933.374s-.684-.125-.933-.374c-.25-.249-.383-.569-.4-.96V12.44c.017-.391.15-.711.4-.96.249-.249.56-.373.933-.373zm8 0c.373 0 .684.124.933.373.25.249.383.569.4.96v1.173c-.017.391-.15.711-.4.96-.249.25-.56.374-.933.374s-.684-.125-.933-.374c-.25-.249-.383-.569-.4-.96V12.44c.017-.391.15-.711.4-.96.249-.249.56-.373.933-.373z"/></symbol>
  <symbol id="icon-github" viewBox="0 0 24 24" fill="currentColor"><path d="M12 0C5.37 0 0 5.37 0 12c0 5.31 3.435 9.795 8.205 11.385.6.105.825-.255.825-.57 0-.285-.015-1.23-.015-2.235-3.015.555-3.795-.735-4.035-1.41-.135-.345-.72-1.41-1.23-1.695-.42-.225-1.02-.78-.015-.795.945-.015 1.62.87 1.845 1.23 1.08 1.815 2.805 1.305 3.495.99.105-.78.42-1.305.765-1.605-2.67-.3-5.46-1.335-5.46-5.925 0-1.305.465-2.385 1.23-3.225-.12-.3-.54-1.53.12-3.18 0 0 1.005-.315 3.3 1.23.96-.27 1.98-.405 3-.405s2.04.135 3 .405c2.295-1.56 3.3-1.23 3.3-1.23.66 1.65.24 2.88.12 3.18.765.84 1.23 1.905 1.23 3.225 0 4.605-2.805 5.625-5.475 5.925.435.375.81 1.095.81 2.22 0 1.605-.015 2.895-.015 3.3 0 .315.225.69.825.57A12.02 12.02 0 0024 12c0-6.63-5.37-12-12-12z"/></symbol>
  <symbol id="icon-qq" viewBox="0 0 24 24" fill="currentColor"><path d="M12.003 2C6.004 2 2 6.14 2 10.748c0 2.35.903 4.39 2.633 5.95-.197 1.12-.76 2.823-1.633 4.302 1.68-.46 3.22-1.348 4.328-2.18A11.34 11.34 0 0012.003 20C18.002 20 22 15.86 22 11.252 22 6.644 18.002 2 12.003 2z"/></symbol>
  <symbol id="icon-10" viewBox="0 0 24 24" fill="currentColor"><path d="M16 11c1.66 0 2.99-1.34 2.99-3S17.66 5 16 5c-1.66 0-3 1.34-3 3s1.34 3 3 3zm-8 0c1.66 0 2.99-1.34 2.99-3S9.66 5 8 5C6.34 5 5 6.34 5 8s1.34 3 3 3zm0 2c-2.33 0-7 1.17-7 3.5V19h14v-2.5c0-2.33-4.67-3.5-7-3.5zm8 0c-.29 0-.62.02-.97.05 1.16.84 1.97 1.97 1.97 3.45V19h6v-2.5c0-2.33-4.67-3.5-7-3.5z"/></symbol>
  <symbol id="icon-11" viewBox="0 0 24 24" fill="none" stroke="currentColor" stroke-width="2"><circle cx="12" cy="12" r="10"/><line x1="2" y1="12" x2="22" y2="12"/><path d="M12 2a15.3 15.3 0 014 10 15.3 15.3 0 01-4 10 15.3 15.3 0 01-4-10 15.3 15.3 0 014-10z"/></symbol>
  <symbol id="icon-12" viewBox="0 0 24 24" fill="none" stroke="currentColor" stroke-width="2"><path d="M4 19.5A2.5 2.5 0 016.5 17H20"/><path d="M6.5 2H20v20H6.5A2.5 2.5 0 014 19.5v-15A2.5 2.5 0 016.5 2z"/></symbol>
  <symbol id="icon-13" viewBox="0 0 24 24" fill="none" stroke="currentColor" stroke-width="2"><path d="M20.84 4.61a5.5 5.5 0 00-7.78 0L12 5.67l-1.06-1.06a5.5 5.5 0 00-7.78 7.78l1.06 1.06L12 21.23l7.78-7.78 1.06-1.06a5.5 5.5 0 000-7.78z"/></symbol>
  <symbol id="icon-mail" viewBox="0 0 24 24" fill="none" stroke="currentColor" stroke-width="2"><path d="M4 4h16c1.1 0 2 .9 2 2v12c0 1.1-.9 2-2 2H4c-1.1 0-2-.9-2-2V6c0-1.1.9-2 2-2z"/><polyline points="22,6 12,13 2,6"/></symbol>
</svg>
